<?xml version="1.0" encoding="UTF-8"?>
<svg id="SVGDoc" width="381" height="660" xmlns="http://www.w3.org/2000/svg" version="1.1" xmlns:xlink="http://www.w3.org/1999/xlink" xmlns:avocode="https://avocode.com/" viewBox="0 0 381 660"><defs><clipPath id="ClipPath1095"><path d="M14.99996,18.917h361.00004c2.76136,0 4.99998,2.23833 4.99998,5.00011v631.08252c0,2.76178 -2.23862,5.00011 -4.99998,5.00011h-361.00004c-2.76147,0 -4.99998,-2.23833 -4.99998,-5.00011v-631.08252c0,-2.76178 2.2385,-5.00011 4.99998,-5.00011z" fill="#ffffff"></path></clipPath><clipPath id="ClipPath1102"><path d="M4.99989,-0.00012h361.00004c2.76147,0 4.99998,2.23833 4.99998,5.00011v630.03136c0,2.76178 -2.2385,5.00011 -4.99998,5.00011h-361.00004c-2.76136,0 -4.99998,-2.23833 -4.99998,-5.00011v-630.03136c0,-2.76178 2.23862,-5.00011 4.99998,-5.00011z" fill="#ffffff"></path></clipPath></defs><desc>Generated with Avocode.</desc><g><g><title>Прямоугольник, скругл. углы 2</title><path d="M5.99989,-0.00012h329.00007c2.76136,0 4.99998,2.23833 4.99998,5.00011v564.99952c0,2.76178 -2.23862,5.00011 -4.99998,5.00011h-329.00007c-2.76136,0 -4.99998,-2.23833 -4.99998,-5.00011v-564.99952c0,-2.76178 2.23862,-5.00011 4.99998,-5.00011z" fill="#fdefe4" fill-opacity="1"></path></g><g><title>Прямоугольник, скругл. углы 2 копия 8</title><path d="M14.99996,18.917h361.00004c2.76136,0 4.99998,2.23833 4.99998,5.00011v631.08252c0,2.76178 -2.23862,5.00011 -4.99998,5.00011h-361.00004c-2.76147,0 -4.99998,-2.23833 -4.99998,-5.00011v-631.08252c0,-2.76178 2.2385,-5.00011 4.99998,-5.00011z" fill-opacity="0" fill="#ffffff" stroke-dashoffset="0" stroke-dasharray="" stroke-linejoin="miter" stroke-linecap="butt" stroke-opacity="1" stroke="#f4c39a" stroke-miterlimit="20" stroke-width="2" clip-path="url(&quot;#ClipPath1095&quot;)"></path></g><g opacity="0.45"><title>Прямоугольник, скругл. углы 2 копия 7</title><path d="M4.99989,-0.00012h361.00004c2.76147,0 4.99998,2.23833 4.99998,5.00011v630.03136c0,2.76178 -2.2385,5.00011 -4.99998,5.00011h-361.00004c-2.76136,0 -4.99998,-2.23833 -4.99998,-5.00011v-630.03136c0,-2.76178 2.23862,-5.00011 4.99998,-5.00011z" fill-opacity="0" fill="#ffffff" stroke-dashoffset="0" stroke-dasharray="" stroke-linejoin="miter" stroke-linecap="butt" stroke-opacity="1" stroke="#f4c39a" stroke-miterlimit="20" stroke-width="2" clip-path="url(&quot;#ClipPath1102&quot;)"></path></g></g></svg>