<?xml version="1.0" encoding="UTF-8"?>
<svg id="SVGDoc" width="376" height="960" xmlns="http://www.w3.org/2000/svg" version="1.1" xmlns:xlink="http://www.w3.org/1999/xlink" xmlns:avocode="https://avocode.com/" viewBox="0 0 376 960"><defs><clipPath id="ClipPath1058"><path d="M14.99999,24.90603h355.99995c2.76147,0 4.99998,2.23833 4.99998,5.00011v925.09335c0,2.76178 -2.2385,5.00011 -4.99998,5.00011h-355.99995c-2.76147,0 -5.00009,-2.23833 -5.00009,-5.00011v-925.09335c0,-2.76178 2.23862,-5.00011 5.00009,-5.00011z" fill="#ffffff"></path></clipPath><clipPath id="ClipPath1065"><path d="M10.13691,239.00066v0v-1.00014v0h354.79741v0v1.00014v0z" fill="#ffffff"></path></clipPath><clipPath id="ClipPath1072"><path d="M10.13691,780.49891v0v-1.11977v0h354.79741v0v1.11977v0z" fill="#ffffff"></path></clipPath><clipPath id="ClipPath1079"><path d="M4.99992,-0.00042h356.00006c2.76136,0 4.99998,2.23894 4.99998,5.00011v924.24987c0,2.76178 -2.23862,5.00011 -4.99998,5.00011h-356.00006c-2.76136,0 -4.99998,-2.23833 -4.99998,-5.00011v-924.24987c0,-2.76118 2.23862,-5.00011 4.99998,-5.00011z" fill="#ffffff"></path></clipPath></defs><desc>Generated with Avocode.</desc><g><g><title>Прямоугольник, скругл. углы 2</title><path d="M5.99992,-0.00042h324.99998c2.76147,0 5.00009,2.23894 5.00009,5.00011v851.00009c0,2.76118 -2.23862,5.00011 -5.00009,5.00011h-324.99998c-2.76136,0 -4.99998,-2.23894 -4.99998,-5.00011v-851.00009c0,-2.76118 2.23862,-5.00011 4.99998,-5.00011z" fill="#fdefe4" fill-opacity="1"></path></g><g><title>Прямоугольник, скругл. углы 2 копия 8</title><path d="M14.99999,24.90603h355.99995c2.76147,0 4.99998,2.23833 4.99998,5.00011v925.09335c0,2.76178 -2.2385,5.00011 -4.99998,5.00011h-355.99995c-2.76147,0 -5.00009,-2.23833 -5.00009,-5.00011v-925.09335c0,-2.76178 2.23862,-5.00011 5.00009,-5.00011z" fill-opacity="0" fill="#ffffff" stroke-dashoffset="0" stroke-dasharray="" stroke-linejoin="miter" stroke-linecap="butt" stroke-opacity="1" stroke="#f4c39a" stroke-miterlimit="20" stroke-width="2" clip-path="url(&quot;#ClipPath1058&quot;)"></path></g><g><title>Линия</title><path d="M10.13691,239.00066v0v-1.00014v0h354.79741v0v1.00014v0z" fill-opacity="0" fill="#ffffff" stroke-dashoffset="0" stroke-dasharray="" stroke-linejoin="miter" stroke-linecap="butt" stroke-opacity="1" stroke="#f4c39a" stroke-miterlimit="20" stroke-width="2" clip-path="url(&quot;#ClipPath1065&quot;)"></path></g><g><title>Линия копия</title><path d="M10.13691,780.49891v0v-1.11977v0h354.79741v0v1.11977v0z" fill-opacity="0" fill="#ffffff" stroke-dashoffset="0" stroke-dasharray="" stroke-linejoin="miter" stroke-linecap="butt" stroke-opacity="1" stroke="#f4c39a" stroke-miterlimit="20" stroke-width="2" clip-path="url(&quot;#ClipPath1072&quot;)"></path></g><g opacity="0.45"><title>Прямоугольник, скругл. углы 2 копия 7</title><path d="M4.99992,-0.00042h356.00006c2.76136,0 4.99998,2.23894 4.99998,5.00011v924.24987c0,2.76178 -2.23862,5.00011 -4.99998,5.00011h-356.00006c-2.76136,0 -4.99998,-2.23833 -4.99998,-5.00011v-924.24987c0,-2.76118 2.23862,-5.00011 4.99998,-5.00011z" fill-opacity="0" fill="#ffffff" stroke-dashoffset="0" stroke-dasharray="" stroke-linejoin="miter" stroke-linecap="butt" stroke-opacity="1" stroke="#f4c39a" stroke-miterlimit="20" stroke-width="2" clip-path="url(&quot;#ClipPath1079&quot;)"></path></g></g></svg>