<?xml version="1.0" encoding="UTF-8"?>
<svg id="SVGDoc" width="408" height="301" xmlns="http://www.w3.org/2000/svg" version="1.1" xmlns:xlink="http://www.w3.org/1999/xlink" xmlns:avocode="https://avocode.com/" viewBox="0 0 408 301"><defs><clipPath id="ClipPath1044"><path d="M15.93747,11.93726h387.06247c2.76147,0 4.99998,2.23833 4.99998,5.00011v279.0621c0,2.76178 -2.2385,5.00011 -4.99998,5.00011h-387.06247c-2.76147,0 -4.99998,-2.23833 -4.99998,-5.00011v-279.0621c0,-2.76178 2.2385,-5.00011 4.99998,-5.00011z" fill="#ffffff"></path></clipPath><clipPath id="ClipPath1051"><path d="M4.99996,0.99944h387.06247c2.76147,0 4.99998,2.23894 4.99998,5.00011v279.06271c0,2.76118 -2.2385,5.00011 -4.99998,5.00011h-387.06247c-2.76147,0 -4.99998,-2.23894 -4.99998,-5.00011v-279.06271c0,-2.76118 2.2385,-5.00011 4.99998,-5.00011z" fill="#ffffff"></path></clipPath></defs><desc>Generated with Avocode.</desc><g><g opacity="0.3"><title>Прямоугольник, скругл. углы 2</title><path d="M6.99995,-0.0001h352.99996c2.76147,0 4.99998,2.23833 4.99998,4.99951v254.0002c0,2.76178 -2.2385,5.00011 -4.99998,5.00011h-352.99996c-2.76147,0 -4.99998,-2.23833 -4.99998,-5.00011v-254.0002c0,-2.76118 2.2385,-4.99951 4.99998,-4.99951z" fill="#f7cba4" fill-opacity="1"></path></g><g><title>Прямоугольник, скругл. углы 2 копия 8</title><path d="M15.93747,11.93726h387.06247c2.76147,0 4.99998,2.23833 4.99998,5.00011v279.0621c0,2.76178 -2.2385,5.00011 -4.99998,5.00011h-387.06247c-2.76147,0 -4.99998,-2.23833 -4.99998,-5.00011v-279.0621c0,-2.76178 2.2385,-5.00011 4.99998,-5.00011z" fill-opacity="0" fill="#ffffff" stroke-dashoffset="0" stroke-dasharray="" stroke-linejoin="miter" stroke-linecap="butt" stroke-opacity="1" stroke="#f4c39a" stroke-miterlimit="20" stroke-width="2" clip-path="url(&quot;#ClipPath1044&quot;)"></path></g><g opacity="0.45"><title>Прямоугольник, скругл. углы 2 копия 7</title><path d="M4.99996,0.99944h387.06247c2.76147,0 4.99998,2.23894 4.99998,5.00011v279.06271c0,2.76118 -2.2385,5.00011 -4.99998,5.00011h-387.06247c-2.76147,0 -4.99998,-2.23894 -4.99998,-5.00011v-279.06271c0,-2.76118 2.2385,-5.00011 4.99998,-5.00011z" fill-opacity="0" fill="#ffffff" stroke-dashoffset="0" stroke-dasharray="" stroke-linejoin="miter" stroke-linecap="butt" stroke-opacity="1" stroke="#f4c39a" stroke-miterlimit="20" stroke-width="2" clip-path="url(&quot;#ClipPath1051&quot;)"></path></g></g></svg>