<?xml version="1.0" encoding="UTF-8"?>
<svg id="SVGDoc" width="433" height="307" xmlns="http://www.w3.org/2000/svg" version="1.1" xmlns:xlink="http://www.w3.org/1999/xlink" xmlns:avocode="https://avocode.com/" viewBox="0 0 433 307"><defs><clipPath id="ClipPath1136"><path d="M16.62492,11.21835h411.37499c2.76147,0 5.00009,2.23894 5.00009,5.00011v285.78135c0,2.76118 -2.23862,5.00011 -5.00009,5.00011h-411.37499c-2.76136,0 -4.99998,-2.23894 -4.99998,-5.00011v-285.78135c0,-2.76118 2.23862,-5.00011 4.99998,-5.00011z" fill="#ffffff"></path></clipPath><clipPath id="ClipPath1143"><path d="M4.99993,-0.00002h411.37499c2.76147,0 4.99998,2.23833 4.99998,4.99951v285.78135c0,2.76178 -2.2385,5.00011 -4.99998,5.00011h-411.37499c-2.76136,0 -4.99998,-2.23833 -4.99998,-5.00011v-285.78135c0,-2.76118 2.23862,-4.99951 4.99998,-4.99951z" fill="#ffffff"></path></clipPath></defs><desc>Generated with Avocode.</desc><g><g opacity="0.3"><title>Прямоугольник, скругл. углы 2 копия 10</title><path d="M5.99992,41.99996h378.00008c2.76136,0 4.99998,2.23833 4.99998,4.99951v254.0002c0,2.76118 -2.23862,5.00011 -4.99998,5.00011h-378.00008c-2.76136,0 -4.99998,-2.23894 -4.99998,-5.00011v-254.0002c0,-2.76118 2.23862,-4.99951 4.99998,-4.99951z" fill="#f7cba4" fill-opacity="1"></path></g><g><title>Прямоугольник, скругл. углы 2 копия 2</title><path d="M16.62492,11.21835h411.37499c2.76147,0 5.00009,2.23894 5.00009,5.00011v285.78135c0,2.76118 -2.23862,5.00011 -5.00009,5.00011h-411.37499c-2.76136,0 -4.99998,-2.23894 -4.99998,-5.00011v-285.78135c0,-2.76118 2.23862,-5.00011 4.99998,-5.00011z" fill-opacity="0" fill="#ffffff" stroke-dashoffset="0" stroke-dasharray="" stroke-linejoin="miter" stroke-linecap="butt" stroke-opacity="1" stroke="#f4c39a" stroke-miterlimit="20" stroke-width="2" clip-path="url(&quot;#ClipPath1136&quot;)"></path></g><g><title>Прямоугольник, скругл. углы 2 копия</title><path d="M4.99993,-0.00002h411.37499c2.76147,0 4.99998,2.23833 4.99998,4.99951v285.78135c0,2.76178 -2.2385,5.00011 -4.99998,5.00011h-411.37499c-2.76136,0 -4.99998,-2.23833 -4.99998,-5.00011v-285.78135c0,-2.76118 2.23862,-4.99951 4.99998,-4.99951z" fill-opacity="0" fill="#ffffff" stroke-dashoffset="0" stroke-dasharray="" stroke-linejoin="miter" stroke-linecap="butt" stroke-opacity="1" stroke="#f4c39a" stroke-miterlimit="20" stroke-width="2" clip-path="url(&quot;#ClipPath1143&quot;)"></path></g></g></svg>