<?xml version="1.0" encoding="UTF-8"?>
<svg id="SVGDoc" width="407" height="310" xmlns="http://www.w3.org/2000/svg" version="1.1" xmlns:xlink="http://www.w3.org/1999/xlink" xmlns:avocode="https://avocode.com/" viewBox="0 0 407 310"><defs><clipPath id="ClipPath1159"><path d="M15.84368,11.28097h384.15631c2.76136,0 4.99998,2.23833 4.99998,5.00011v287.71848c0,2.76178 -2.23862,5.00011 -4.99998,5.00011h-384.15631c-2.76136,0 -4.99998,-2.23833 -4.99998,-5.00011v-287.71848c0,-2.76178 2.23862,-5.00011 4.99998,-5.00011z" fill="#ffffff"></path></clipPath><clipPath id="ClipPath1166"><path d="M4.99999,-0.00056h384.15619c2.76147,0 4.99998,2.23894 4.99998,5.00011v287.71909c0,2.76118 -2.2385,4.99951 -4.99998,4.99951h-384.15619c-2.76147,0 -5.00009,-2.23833 -5.00009,-4.99951v-287.71909c0,-2.76118 2.23862,-5.00011 5.00009,-5.00011z" fill="#ffffff"></path></clipPath></defs><desc>Generated with Avocode.</desc><g><g opacity="0.3"><title>Прямоугольник, скругл. углы 2 копия 9</title><path d="M48.9999,45.9994h353.00008c2.76136,0 4.99998,2.23894 4.99998,5.00011v254.0002c0,2.76118 -2.23862,5.00011 -4.99998,5.00011h-353.00008c-2.76136,0 -4.99998,-2.23894 -4.99998,-5.00011v-254.0002c0,-2.76118 2.23862,-5.00011 4.99998,-5.00011z" fill="#f7cba4" fill-opacity="1"></path></g><g><title>Прямоугольник, скругл. углы 2 копия 4</title><path d="M15.84368,11.28097h384.15631c2.76136,0 4.99998,2.23833 4.99998,5.00011v287.71848c0,2.76178 -2.23862,5.00011 -4.99998,5.00011h-384.15631c-2.76136,0 -4.99998,-2.23833 -4.99998,-5.00011v-287.71848c0,-2.76178 2.23862,-5.00011 4.99998,-5.00011z" fill-opacity="0" fill="#ffffff" stroke-dashoffset="0" stroke-dasharray="" stroke-linejoin="miter" stroke-linecap="butt" stroke-opacity="1" stroke="#f4c39a" stroke-miterlimit="20" stroke-width="2" clip-path="url(&quot;#ClipPath1159&quot;)"></path></g><g opacity="0.45"><title>Прямоугольник, скругл. углы 2 копия 3</title><path d="M4.99999,-0.00056h384.15619c2.76147,0 4.99998,2.23894 4.99998,5.00011v287.71909c0,2.76118 -2.2385,4.99951 -4.99998,4.99951h-384.15619c-2.76147,0 -5.00009,-2.23833 -5.00009,-4.99951v-287.71909c0,-2.76118 2.23862,-5.00011 5.00009,-5.00011z" fill-opacity="0" fill="#ffffff" stroke-dashoffset="0" stroke-dasharray="" stroke-linejoin="miter" stroke-linecap="butt" stroke-opacity="1" stroke="#f4c39a" stroke-miterlimit="20" stroke-width="2" clip-path="url(&quot;#ClipPath1166&quot;)"></path></g></g></svg>