<?xml version="1.0" encoding="UTF-8"?>
<svg id="SVGDoc" width="469" height="298" xmlns="http://www.w3.org/2000/svg" version="1.1" xmlns:xlink="http://www.w3.org/1999/xlink" xmlns:avocode="https://avocode.com/" viewBox="0 0 469 298"><defs><clipPath id="ClipPath1113"><path d="M17.49998,10.87445h443.49994c2.76147,0 4.99998,2.23894 4.99998,5.00011v277.12497c0,2.76178 -2.2385,5.00011 -4.99998,5.00011h-443.49994c-2.76147,0 -5.00009,-2.23833 -5.00009,-5.00011v-277.12497c0,-2.76118 2.23862,-5.00011 5.00009,-5.00011z" fill="#ffffff"></path></clipPath><clipPath id="ClipPath1120"><path d="M4.99998,-0.00022h443.49994c2.76147,0 4.99998,2.23833 4.99998,5.00011v277.12497c0,2.76118 -2.2385,5.00011 -4.99998,5.00011h-443.49994c-2.76147,0 -5.00009,-2.23894 -5.00009,-5.00011v-277.12497c0,-2.76178 2.23862,-5.00011 5.00009,-5.00011z" fill="#ffffff"></path></clipPath></defs><desc>Generated with Avocode.</desc><g><g opacity="0.3"><title>Прямоугольник, скругл. углы 2 копия 11</title><path d="M54.99998,0.99992h408.99993c2.76147,0 4.99998,2.23833 4.99998,4.99951v254.0002c0,2.76178 -2.2385,5.00011 -4.99998,5.00011h-408.99993c-2.76147,0 -5.00009,-2.23833 -5.00009,-5.00011v-254.0002c0,-2.76118 2.23862,-4.99951 5.00009,-4.99951z" fill="#f7cba4" fill-opacity="1"></path></g><g><title>Прямоугольник, скругл. углы 2 копия 6</title><path d="M17.49998,10.87445h443.49994c2.76147,0 4.99998,2.23894 4.99998,5.00011v277.12497c0,2.76178 -2.2385,5.00011 -4.99998,5.00011h-443.49994c-2.76147,0 -5.00009,-2.23833 -5.00009,-5.00011v-277.12497c0,-2.76118 2.23862,-5.00011 5.00009,-5.00011z" fill-opacity="0" fill="#ffffff" stroke-dashoffset="0" stroke-dasharray="" stroke-linejoin="miter" stroke-linecap="butt" stroke-opacity="1" stroke="#f4c39a" stroke-miterlimit="20" stroke-width="2" clip-path="url(&quot;#ClipPath1113&quot;)"></path></g><g opacity="0.45"><title>Прямоугольник, скругл. углы 2 копия 5</title><path d="M4.99998,-0.00022h443.49994c2.76147,0 4.99998,2.23833 4.99998,5.00011v277.12497c0,2.76118 -2.2385,5.00011 -4.99998,5.00011h-443.49994c-2.76147,0 -5.00009,-2.23894 -5.00009,-5.00011v-277.12497c0,-2.76178 2.23862,-5.00011 5.00009,-5.00011z" fill-opacity="0" fill="#ffffff" stroke-dashoffset="0" stroke-dasharray="" stroke-linejoin="miter" stroke-linecap="butt" stroke-opacity="1" stroke="#f4c39a" stroke-miterlimit="20" stroke-width="2" clip-path="url(&quot;#ClipPath1120&quot;)"></path></g></g></svg>